<svg xmlns="http://www.w3.org/2000/svg" xmlns:xlink="http://www.w3.org/1999/xlink" width="98" height="97.999" viewBox="0 0 98 97.999">
  <defs>
    <clipPath id="clip-path">
      <rect id="Rectangle_460295" data-name="Rectangle 460295" width="66" height="66" transform="translate(820.665 2551.469)" fill="#fff" stroke="#707070" stroke-width="1"/>
    </clipPath>
  </defs>
  <g id="Group_1360657" data-name="Group 1360657" transform="translate(-804.665 -2535.47)">
    <g id="Group_1360271" data-name="Group 1360271">
      <g id="Group_1360244" data-name="Group 1360244" transform="translate(804.665 2535.471)">
        <g id="Group_1204180" data-name="Group 1204180" transform="translate(0 0)">
          <g id="Group_1204143" data-name="Group 1204143" transform="translate(0 0)">
            <g id="Group_1188789" data-name="Group 1188789">
              <path id="Path_1243039" data-name="Path 1243039" d="M41.05,0h0a41.05,41.05,0,1,1,0,82.1h0a41.05,41.05,0,1,1,0-82.1Z" transform="translate(7.951 7.949)" fill="#bdcdb3"/>
              <rect id="Rectangle_400907" data-name="Rectangle 400907" width="88.438" height="88.437" rx="44.218" transform="translate(4.782 4.781)" fill="none"/>
              <g id="Group_1098742" data-name="Group 1098742">
                <g id="Rectangle_400898" data-name="Rectangle 400898" transform="translate(0)" fill="none" stroke="#fff" stroke-width="2" opacity="0.859">
                  <rect width="98" height="97.999" rx="48.999" stroke="none"/>
                  <rect x="1" y="1" width="96" height="95.999" rx="47.999" fill="none"/>
                </g>
                <g id="Rectangle_400907-2" data-name="Rectangle 400907" transform="translate(0)" fill="none" stroke="#0f1f33" stroke-linecap="round" stroke-width="2">
                  <rect width="98" height="97.999" rx="48.999" stroke="none"/>
                  <rect x="1" y="1" width="96" height="95.999" rx="47.999" fill="none"/>
                </g>
              </g>
            </g>
          </g>
        </g>
      </g>
    </g>
    <g id="Mask_Group_1099547" data-name="Mask Group 1099547" clip-path="url(#clip-path)">
      <g id="success_16036335" transform="translate(820.524 2552.085)">
        <g id="Group_1360787" data-name="Group 1360787">
          <g id="Group_1360785" data-name="Group 1360785">
            <path id="Path_1381673" data-name="Path 1381673" d="M52.651,22.287h6.112a.641.641,0,0,1,.64.64V63.785a.641.641,0,0,1-.64.64H52.651a.641.641,0,0,1-.64-.64V22.927A.641.641,0,0,1,52.651,22.287Z" fill="#43a2ff" fill-rule="evenodd"/>
            <path id="Path_1381674" data-name="Path 1381674" d="M40.7,29.589h6.112a.641.641,0,0,1,.64.64V63.785a.641.641,0,0,1-.64.64H40.7a.641.641,0,0,1-.64-.64V30.228a.641.641,0,0,1,.64-.64Z" fill="#6ce75a" fill-rule="evenodd"/>
            <path id="Path_1381675" data-name="Path 1381675" d="M28.75,36.89h6.112a.641.641,0,0,1,.64.64V63.785a.641.641,0,0,1-.64.64H28.75a.641.641,0,0,1-.64-.64V37.53a.641.641,0,0,1,.64-.64Z" fill="#ffd54f" fill-rule="evenodd"/>
            <path id="Path_1381676" data-name="Path 1381676" d="M16.8,44.191h6.112a.641.641,0,0,1,.64.64V63.785a.641.641,0,0,1-.64.64H16.8a.641.641,0,0,1-.64-.64V44.831A.641.641,0,0,1,16.8,44.191Z" fill="#ff6372" fill-rule="evenodd"/>
            <path id="Path_1381677" data-name="Path 1381677" d="M4.85,51.493h6.112a.641.641,0,0,1,.64.64V63.785a.641.641,0,0,1-.64.64H4.85a.641.641,0,0,1-.64-.64V52.133A.641.641,0,0,1,4.85,51.493Z" fill="#7a7785" fill-rule="evenodd"/>
          </g>
          <path id="Path_1381678" data-name="Path 1381678" d="M3.556,31.973,2.547,30.226A.976.976,0,0,1,2.9,28.9l.557-.322a3.244,3.244,0,0,0-.782-5.943l-.622-.166a.976.976,0,0,1-.688-1.192l1.044-3.9A.976.976,0,0,1,3.6,16.688l.622.167A3.244,3.244,0,0,0,7.876,12.1l-.322-.557a.976.976,0,0,1,.356-1.33L11.4,8.2a.976.976,0,0,1,1.33.356l.322.557A3.244,3.244,0,0,0,19,8.326l.167-.622a.976.976,0,0,1,1.192-.688l3.9,1.044a.976.976,0,0,1,.688,1.192l-.167.622a3.244,3.244,0,0,0,4.756,3.649l.557-.322a.976.976,0,0,1,1.329.356L32.426,15.3l-7.3,4.215a8.237,8.237,0,1,0-14.268,8.237Z" fill="#ffd54f" fill-rule="evenodd"/>
          <g id="Group_1360786" data-name="Group 1360786">
            <circle id="Ellipse_14659" data-name="Ellipse 14659" cx="8.469" cy="8.469" r="8.469" transform="translate(45.528 15.867) rotate(-76.7)" fill="#43a2ff"/>
          </g>
        </g>
        <path id="Path_1381679" data-name="Path 1381679" d="M3.384,29.727l.556-.322a4.2,4.2,0,0,0-1.013-7.7l-.622-.167a.013.013,0,0,1-.008-.017l1.044-3.9a.018.018,0,0,1,.014-.01h0l.621.167A4.14,4.14,0,0,0,8.4,16.28a4.137,4.137,0,0,0,.306-4.661l-.321-.558a.014.014,0,0,1,0-.018l3.495-2.017a.017.017,0,0,1,.018.006l.323.557a4.2,4.2,0,0,0,7.7-1.014l.166-.622a.015.015,0,0,1,.017-.01l3.9,1.044a.016.016,0,0,1,.01.016l-.168.622a4.2,4.2,0,0,0,6.163,4.728l.557-.322a.017.017,0,0,1,.019,0l.528.916-5.681,3.28A9.2,9.2,0,0,0,9.59,27.382L3.907,30.663l-.529-.916a.015.015,0,0,1,.006-.019ZM4.037,32.8l7.3-4.215a.96.96,0,0,0,.351-1.311A7.278,7.278,0,0,1,24.294,20a.959.959,0,0,0,1.31.351l7.3-4.215a.96.96,0,0,0,.351-1.311l-1.008-1.747a1.937,1.937,0,0,0-2.641-.707l-.556.322a2.285,2.285,0,0,1-3.35-2.57l.168-.622A1.936,1.936,0,0,0,24.5,7.134l-3.9-1.044a1.936,1.936,0,0,0-2.367,1.367l-.167.622a2.285,2.285,0,0,1-4.185.551l-.322-.558a1.935,1.935,0,0,0-2.64-.707L7.43,9.381a1.937,1.937,0,0,0-.707,2.641l.322.557a2.221,2.221,0,0,1-.167,2.533,2.22,2.22,0,0,1-2.4.816l-.622-.167a1.935,1.935,0,0,0-2.368,1.367l-1.044,3.9a1.935,1.935,0,0,0,1.367,2.368l.622.167a2.284,2.284,0,0,1,.55,4.185l-.556.322a1.935,1.935,0,0,0-.708,2.64l1.008,1.747a.96.96,0,0,0,1.311.351ZM59.918,7.585l-4.9,5.711a.958.958,0,0,1-.717.335h-.012a.959.959,0,0,1-.714-.318l-2.761-3.075a.96.96,0,1,1,1.428-1.282l2.031,2.261,4.183-4.88a.96.96,0,1,1,1.458,1.249Zm-4.211,9.483A7.511,7.511,0,1,0,48.2,9.558,7.519,7.519,0,0,0,55.707,17.068Zm0-16.94a9.43,9.43,0,1,0,9.43,9.43A9.44,9.44,0,0,0,55.707.128ZM34.441,16.835a.96.96,0,0,0,.941.978l4.225.079c-7.658,7.39-19.827,16.042-32.355,22.958a.96.96,0,0,0,.465,1.8.945.945,0,0,0,.463-.12c12.849-7.093,24.9-15.659,32.736-23.232l-.078,4.179a.959.959,0,1,0,1.918.036l.123-6.519a.96.96,0,0,0-.941-.978l-6.518-.123a.956.956,0,0,0-.978.942Zm24,46.63H52.971V23.246h5.471Zm.96-42.138h-7.39a.959.959,0,0,0-.96.96V64.425a.96.96,0,0,0,.96.96H59.4a.959.959,0,0,0,.96-.96V22.287A.958.958,0,0,0,59.4,21.327ZM10.642,63.465H5.169V52.452h5.473Zm.96-12.932H4.21a.961.961,0,0,0-.96.96V64.425a.961.961,0,0,0,.96.96H11.6a.96.96,0,0,0,.96-.96V51.492A.96.96,0,0,0,11.6,50.533Zm10.99,12.932H17.12V45.151h5.471Zm.96-20.233h-7.39a.961.961,0,0,0-.96.96V64.425a.961.961,0,0,0,.96.96h7.39a.959.959,0,0,0,.96-.96V44.191a.959.959,0,0,0-.96-.96ZM34.542,63.465H29.07V37.849h5.472ZM35.5,35.93a.96.96,0,0,1,.96.96V64.425a.961.961,0,0,1-.96.96H28.109a.96.96,0,0,1-.96-.96V36.89a.96.96,0,0,1,.96-.96ZM46.493,63.465H41.02V30.548h5.472Zm.96-34.836a.96.96,0,0,1,.96.96V64.425a.961.961,0,0,1-.96.96H40.061a.961.961,0,0,1-.96-.96V29.588a.96.96,0,0,1,.96-.96Z" fill-rule="evenodd"/>
      </g>
    </g>
  </g>
</svg>
